<?xml version="1.0" encoding="UTF-8"?>
<svg width="108" height="108" viewBox="0 0 108 108" xmlns="http://www.w3.org/2000/svg">
  <!-- Background circle -->
  <circle cx="54" cy="54" r="48" fill="#FFFFFF" stroke="#E0E0E0" stroke-width="1"/>
  
  <!-- Calendar base -->
  <rect x="24" y="32" width="60" height="44" fill="#4A90E2" rx="2"/>
  
  <!-- Calendar header -->
  <rect x="24" y="32" width="60" height="8" fill="#4A90E2" rx="2"/>
  
  <!-- Calendar grid lines -->
  <!-- Row 1 -->
  <rect x="28" y="44" width="8" height="6" fill="#FFFFFF"/>
  <rect x="38" y="44" width="8" height="6" fill="#FFFFFF"/>
  <rect x="48" y="44" width="8" height="6" fill="#FFFFFF"/>
  <rect x="58" y="44" width="8" height="6" fill="#FFFFFF"/>
  <rect x="68" y="44" width="8" height="6" fill="#FFFFFF"/>
  
  <!-- Row 2 -->
  <rect x="28" y="52" width="8" height="6" fill="#FFFFFF"/>
  <rect x="38" y="52" width="8" height="6" fill="#FFFFFF"/>
  <rect x="48" y="52" width="8" height="6" fill="#FFFFFF"/>
  <rect x="58" y="52" width="8" height="6" fill="#FFFFFF"/>
  <rect x="68" y="52" width="8" height="6" fill="#FFFFFF"/>
  
  <!-- Row 3 -->
  <rect x="28" y="60" width="8" height="6" fill="#FFFFFF"/>
  <rect x="38" y="60" width="8" height="6" fill="#FFFFFF"/>
  <rect x="48" y="60" width="8" height="6" fill="#FFFFFF"/>
  <rect x="58" y="60" width="8" height="6" fill="#FFFFFF"/>
  <rect x="68" y="60" width="8" height="6" fill="#FFFFFF"/>
  
  <!-- Current day highlight (gold) -->
  <rect x="38" y="52" width="8" height="6" fill="#FFD700"/>
  
  <!-- Lunar phase indicator (brown circle) -->
  <circle cx="72" cy="66" r="3" fill="#8B4513"/>
</svg> 